<svg id="svg" version="1.1" xmlns="http://www.w3.org/2000/svg" xmlns:xlink="http://www.w3.org/1999/xlink" width="400" height="400" viewBox="0, 0, 400,400"><g id="svgg"><path id="path0" d="M195.750 78.758 C 195.108 79.157,194.303 79.619,193.960 79.784 C 193.618 79.948,193.336 80.140,193.335 80.208 C 193.334 80.277,193.257 80.333,193.164 80.333 C 193.070 80.333,192.500 80.633,191.897 81.000 C 191.293 81.367,190.772 81.667,190.740 81.667 C 190.707 81.667,189.884 82.154,188.910 82.750 C 187.937 83.346,187.111 83.833,187.074 83.833 C 187.038 83.833,186.254 84.283,185.333 84.833 C 184.412 85.383,183.622 85.833,183.576 85.833 C 183.531 85.833,183.214 86.009,182.872 86.224 C 182.530 86.438,181.912 86.803,181.500 87.033 C 180.389 87.655,179.685 88.060,178.701 88.643 C 178.216 88.931,177.753 89.167,177.673 89.167 C 177.593 89.167,177.503 89.223,177.472 89.292 C 177.419 89.412,176.319 90.049,175.543 90.410 C 175.337 90.505,175.169 90.640,175.168 90.708 C 175.167 90.777,175.093 90.833,175.004 90.833 C 174.914 90.833,174.088 91.283,173.167 91.833 C 172.246 92.383,171.464 92.833,171.430 92.833 C 171.395 92.833,170.874 93.133,170.270 93.500 C 169.667 93.867,169.096 94.167,169.003 94.167 C 168.910 94.167,168.833 94.242,168.833 94.333 C 168.833 94.425,168.762 94.500,168.674 94.500 C 168.586 94.500,168.118 94.736,167.632 95.023 C 167.147 95.311,166.412 95.733,166.000 95.959 C 165.587 96.186,164.894 96.596,164.458 96.870 L 163.667 97.368 163.667 117.106 L 163.667 136.844 162.958 136.445 C 162.569 136.226,161.853 135.811,161.368 135.523 C 160.882 135.236,160.414 135.000,160.326 135.000 C 160.238 135.000,160.167 134.925,160.167 134.833 C 160.167 134.742,160.090 134.667,159.997 134.667 C 159.904 134.667,159.333 134.367,158.730 134.000 C 158.126 133.633,157.605 133.333,157.570 133.333 C 157.536 133.333,156.754 132.883,155.833 132.333 C 154.912 131.783,154.124 131.333,154.082 131.333 C 154.040 131.333,153.516 131.033,152.917 130.667 C 152.318 130.300,151.798 130.000,151.763 130.000 C 151.727 130.000,150.940 129.550,150.014 129.000 C 149.087 128.450,148.300 128.000,148.265 128.000 C 148.230 128.000,147.707 127.700,147.103 127.333 C 146.500 126.967,145.930 126.667,145.836 126.667 C 145.743 126.667,145.667 126.592,145.667 126.500 C 145.667 126.408,145.590 126.333,145.497 126.333 C 145.404 126.333,144.833 126.033,144.230 125.667 C 143.626 125.300,143.105 125.000,143.070 125.000 C 143.036 125.000,142.254 124.550,141.333 124.000 C 140.412 123.450,139.592 123.000,139.510 123.000 C 139.428 123.000,139.336 122.944,139.306 122.875 C 139.252 122.755,138.152 122.117,137.376 121.757 C 137.171 121.661,137.002 121.527,137.001 121.458 C 137.001 121.390,136.928 121.333,136.841 121.333 C 136.753 121.333,136.284 121.098,135.799 120.810 C 135.314 120.522,134.673 120.147,134.375 119.977 C 134.077 119.806,133.590 119.527,133.292 119.357 C 132.994 119.186,132.353 118.811,131.868 118.523 C 131.382 118.235,130.920 118.000,130.840 118.000 C 130.760 118.000,130.669 117.944,130.639 117.875 C 130.374 117.278,129.484 117.147,128.704 117.590 C 128.271 117.837,127.579 118.228,127.167 118.459 C 126.754 118.691,125.874 119.207,125.211 119.607 C 124.548 120.006,123.975 120.333,123.937 120.333 C 123.899 120.333,123.374 120.633,122.770 121.000 C 122.167 121.367,121.596 121.667,121.503 121.667 C 121.410 121.667,121.333 121.742,121.333 121.833 C 121.333 121.925,121.262 122.000,121.174 122.000 C 121.086 122.000,120.618 122.235,120.132 122.523 C 119.193 123.081,118.548 123.452,117.542 124.018 C 117.198 124.211,116.842 124.425,116.750 124.494 C 116.658 124.562,116.171 124.843,115.667 125.118 C 114.597 125.701,113.917 126.089,112.701 126.810 C 112.216 127.098,111.790 127.333,111.755 127.333 C 111.720 127.333,111.080 127.708,110.333 128.167 C 109.587 128.625,108.942 129.000,108.901 129.000 C 108.861 129.000,108.333 129.300,107.730 129.667 C 107.126 130.033,106.601 130.333,106.563 130.333 C 106.525 130.333,105.952 130.660,105.289 131.060 C 103.098 132.380,100.809 133.667,100.653 133.667 C 100.569 133.667,100.500 133.742,100.500 133.833 C 100.500 133.925,100.428 134.000,100.341 134.000 C 100.253 134.000,99.784 134.236,99.299 134.525 C 98.814 134.814,98.003 135.283,97.497 135.567 C 95.769 136.537,95.845 136.442,96.417 136.916 C 96.692 137.145,96.971 137.332,97.038 137.333 C 97.104 137.333,97.912 137.783,98.833 138.333 C 99.754 138.883,100.536 139.333,100.570 139.333 C 100.605 139.333,101.126 139.633,101.730 140.000 C 102.333 140.367,102.904 140.667,102.997 140.667 C 103.090 140.667,103.167 140.742,103.167 140.833 C 103.167 140.925,103.243 141.000,103.336 141.000 C 103.430 141.000,104.000 141.300,104.603 141.667 C 105.207 142.033,105.729 142.333,105.763 142.333 C 105.797 142.333,106.579 142.783,107.500 143.333 C 108.421 143.883,109.217 144.333,109.270 144.333 C 109.322 144.333,109.564 144.472,109.808 144.641 C 110.051 144.811,110.662 145.175,111.167 145.452 C 111.671 145.729,112.758 146.350,113.583 146.833 C 114.408 147.316,115.496 147.937,116.000 148.212 C 116.504 148.487,116.988 148.776,117.075 148.856 C 117.162 148.935,117.312 148.999,117.408 148.997 C 117.589 148.994,116.642 148.370,115.333 147.631 C 113.204 146.428,108.064 143.457,107.918 143.344 C 107.826 143.273,107.337 142.991,106.833 142.717 C 106.329 142.443,104.717 141.521,103.250 140.669 C 101.783 139.817,100.171 138.894,99.667 138.618 C 99.162 138.342,98.551 137.977,98.308 137.808 C 98.064 137.639,97.823 137.500,97.772 137.500 C 97.720 137.500,97.343 137.287,96.933 137.027 L 96.187 136.555 97.460 135.819 C 98.160 135.414,99.074 134.889,99.491 134.651 C 99.909 134.413,101.450 133.521,102.917 132.669 C 104.383 131.817,105.996 130.894,106.500 130.618 C 107.004 130.342,107.616 129.977,107.859 129.808 C 108.102 129.639,108.347 129.500,108.404 129.500 C 108.460 129.500,109.048 129.173,109.711 128.774 C 111.210 127.871,113.950 126.286,115.167 125.619 C 115.671 125.342,116.282 124.977,116.526 124.808 C 116.769 124.639,117.014 124.500,117.070 124.500 C 117.126 124.500,117.715 124.173,118.378 123.774 C 119.877 122.871,122.617 121.286,123.833 120.619 C 124.337 120.342,124.949 119.977,125.192 119.808 C 125.436 119.639,125.678 119.500,125.730 119.500 C 125.783 119.500,126.579 119.050,127.500 118.500 C 128.421 117.950,129.295 117.500,129.442 117.500 C 129.680 117.500,134.424 120.112,135.500 120.836 C 135.729 120.990,136.329 121.343,136.833 121.620 C 138.241 122.393,143.271 125.290,144.622 126.106 C 145.285 126.506,145.874 126.833,145.930 126.833 C 145.986 126.833,146.231 126.972,146.474 127.141 C 146.718 127.311,147.329 127.676,147.833 127.953 C 148.337 128.230,149.669 128.991,150.792 129.645 C 151.915 130.299,153.752 131.359,154.875 132.001 C 155.998 132.643,157.029 133.237,157.167 133.321 C 157.304 133.405,158.579 134.145,160.000 134.965 C 161.421 135.785,162.827 136.597,163.124 136.770 L 163.665 137.083 163.666 156.021 C 163.666 171.421,163.626 174.993,163.449 175.140 C 163.284 175.277,162.888 175.117,161.840 174.494 C 161.075 174.039,160.422 173.667,160.388 173.667 C 160.355 173.667,159.785 173.340,159.122 172.940 C 158.459 172.541,157.579 172.025,157.167 171.794 C 156.521 171.433,152.071 168.869,150.583 168.001 C 149.342 167.277,146.848 165.843,146.167 165.461 C 145.754 165.230,144.479 164.493,143.333 163.824 C 140.286 162.044,134.227 158.551,133.167 157.964 C 132.662 157.684,132.175 157.398,132.083 157.328 C 131.913 157.198,128.049 154.961,122.083 151.540 C 120.250 150.488,118.506 149.481,118.208 149.300 C 117.910 149.120,117.667 149.054,117.667 149.153 C 117.667 149.252,117.736 149.333,117.820 149.333 C 117.904 149.333,118.711 149.773,119.612 150.311 C 122.915 152.282,125.014 153.500,125.105 153.500 C 125.156 153.500,125.398 153.639,125.641 153.808 C 125.884 153.977,126.496 154.342,127.000 154.619 C 128.216 155.286,130.957 156.871,132.455 157.774 C 133.119 158.173,133.707 158.500,133.763 158.500 C 133.819 158.500,134.064 158.639,134.308 158.808 C 134.551 158.977,135.162 159.342,135.667 159.619 C 136.171 159.895,137.258 160.516,138.083 160.999 C 138.908 161.481,139.846 162.024,140.167 162.206 C 140.487 162.387,140.825 162.592,140.917 162.660 C 141.008 162.729,141.496 163.009,142.000 163.283 C 142.504 163.557,144.117 164.479,145.583 165.331 C 147.050 166.183,148.662 167.106,149.167 167.382 C 149.671 167.658,150.282 168.023,150.526 168.192 C 150.769 168.361,151.011 168.500,151.063 168.500 C 151.116 168.500,151.912 168.950,152.833 169.500 C 153.754 170.050,154.536 170.500,154.570 170.500 C 154.605 170.500,155.126 170.800,155.730 171.167 C 156.333 171.533,156.904 171.833,156.997 171.833 C 157.090 171.833,157.167 171.908,157.167 172.000 C 157.167 172.092,157.243 172.167,157.336 172.167 C 157.430 172.167,158.000 172.467,158.603 172.833 C 159.207 173.200,159.729 173.500,159.763 173.500 C 159.797 173.500,160.575 173.948,161.492 174.495 L 163.158 175.490 164.287 174.892 C 164.908 174.563,165.959 173.966,166.622 173.564 C 167.285 173.162,167.859 172.833,167.897 172.833 C 167.935 172.833,168.460 172.533,169.063 172.167 C 169.667 171.800,170.237 171.500,170.330 171.500 C 170.424 171.500,170.500 171.425,170.500 171.333 C 170.500 171.242,170.576 171.167,170.670 171.167 C 170.763 171.167,171.333 170.867,171.937 170.500 C 172.540 170.133,173.062 169.833,173.096 169.833 C 173.131 169.833,173.912 169.383,174.833 168.833 C 175.754 168.283,176.536 167.833,176.570 167.833 C 176.605 167.833,177.126 167.533,177.730 167.167 C 178.333 166.800,178.904 166.500,178.997 166.500 C 179.090 166.500,179.167 166.425,179.167 166.333 C 179.167 166.242,179.238 166.167,179.326 166.167 C 179.414 166.167,179.882 165.931,180.368 165.643 C 181.352 165.060,182.056 164.655,183.167 164.033 C 183.579 163.803,184.196 163.438,184.538 163.224 C 184.880 163.009,185.201 162.833,185.250 162.833 C 185.299 162.833,185.620 162.658,185.962 162.443 C 186.304 162.229,186.921 161.864,187.333 161.633 C 188.444 161.012,189.148 160.607,190.132 160.023 C 190.618 159.735,191.086 159.500,191.174 159.500 C 191.262 159.500,191.333 159.425,191.333 159.333 C 191.333 159.242,191.405 159.167,191.493 159.167 C 191.580 159.167,192.049 158.931,192.534 158.642 C 193.020 158.354,193.799 157.906,194.267 157.647 C 194.734 157.388,195.597 156.885,196.184 156.528 L 197.250 155.880 197.292 116.940 C 197.326 85.835,197.292 78.003,197.125 78.016 C 197.011 78.025,196.392 78.359,195.750 78.758 M202.833 78.284 C 202.833 78.435,208.023 81.500,208.279 81.500 C 208.489 81.500,207.791 81.054,205.713 79.859 C 204.633 79.238,203.544 78.595,203.292 78.430 C 203.040 78.264,202.833 78.198,202.833 78.284 M208.557 81.624 C 208.640 81.758,209.732 82.424,211.907 83.666 C 212.415 83.956,219.632 88.118,220.583 88.670 C 222.345 89.691,226.513 92.095,227.000 92.371 C 227.321 92.553,227.658 92.758,227.750 92.827 C 227.842 92.896,228.329 93.178,228.833 93.455 C 229.338 93.731,230.950 94.651,232.417 95.500 C 233.883 96.349,235.496 97.269,236.000 97.545 C 236.504 97.822,236.992 98.104,237.083 98.173 C 237.175 98.242,237.531 98.456,237.875 98.649 C 238.219 98.842,238.744 99.142,239.042 99.316 C 240.613 100.233,243.845 102.094,244.500 102.459 C 244.912 102.689,245.781 103.204,246.431 103.605 C 247.080 104.006,247.668 104.333,247.738 104.333 C 247.808 104.333,248.066 104.477,248.312 104.652 C 248.558 104.827,249.095 105.150,249.505 105.369 C 250.201 105.742,251.567 106.527,255.000 108.531 C 255.779 108.986,256.529 109.423,256.667 109.502 C 256.804 109.582,258.042 110.300,259.417 111.097 C 260.792 111.895,262.404 112.826,263.000 113.166 C 268.590 116.357,270.113 117.243,270.295 117.409 C 270.491 117.588,265.803 120.500,265.320 120.500 C 265.235 120.500,265.167 120.575,265.167 120.667 C 265.167 120.758,265.093 120.833,265.003 120.833 C 264.913 120.833,264.349 121.133,263.750 121.500 C 263.151 121.867,262.626 122.167,262.584 122.167 C 262.542 122.167,261.754 122.617,260.833 123.167 C 259.912 123.717,259.092 124.167,259.010 124.167 C 258.928 124.167,258.836 124.223,258.806 124.292 C 258.752 124.412,257.652 125.049,256.876 125.410 C 256.671 125.505,256.502 125.640,256.501 125.708 C 256.501 125.777,256.428 125.833,256.341 125.833 C 256.253 125.833,255.784 126.069,255.299 126.357 C 254.814 126.644,254.173 127.019,253.875 127.190 C 253.577 127.360,253.090 127.640,252.792 127.810 C 252.494 127.981,251.853 128.356,251.368 128.643 C 250.882 128.931,250.414 129.167,250.326 129.167 C 250.238 129.167,250.167 129.242,250.167 129.333 C 250.167 129.425,250.090 129.500,249.997 129.500 C 249.904 129.500,249.333 129.800,248.730 130.167 C 248.126 130.533,247.604 130.833,247.568 130.833 C 247.533 130.833,246.746 131.283,245.820 131.833 C 244.894 132.383,244.098 132.833,244.052 132.833 C 244.006 132.833,243.769 132.972,243.526 133.141 C 243.282 133.311,242.671 133.674,242.167 133.949 C 241.662 134.224,240.367 134.959,239.289 135.583 C 237.046 136.880,237.387 136.886,235.083 135.511 C 234.350 135.074,233.412 134.527,233.000 134.297 C 232.588 134.067,231.050 133.182,229.583 132.330 C 228.117 131.479,226.204 130.369,225.333 129.863 C 224.463 129.358,222.813 128.407,221.667 127.751 C 220.521 127.094,218.571 125.968,217.333 125.247 C 214.964 123.868,214.662 123.695,212.562 122.510 C 211.840 122.103,210.591 121.372,209.786 120.885 C 208.981 120.398,208.294 120.000,208.260 120.000 C 208.226 120.000,207.459 119.563,206.557 119.029 C 204.176 117.619,202.546 116.746,202.833 117.034 C 203.044 117.245,205.764 118.848,208.660 120.468 C 209.069 120.696,210.072 121.285,210.890 121.775 C 211.707 122.265,212.397 122.667,212.422 122.667 C 212.448 122.667,213.395 123.201,214.526 123.854 C 215.658 124.507,216.827 125.182,217.125 125.354 C 217.423 125.526,217.910 125.806,218.208 125.977 C 218.506 126.147,219.147 126.522,219.632 126.810 C 220.118 127.098,220.586 127.333,220.674 127.333 C 220.762 127.333,220.833 127.408,220.833 127.500 C 220.833 127.592,220.910 127.667,221.003 127.667 C 221.096 127.667,221.667 127.967,222.270 128.333 C 222.874 128.700,223.395 129.000,223.430 129.000 C 223.464 129.000,224.246 129.450,225.167 130.000 C 226.088 130.550,226.869 131.000,226.904 131.000 C 226.938 131.000,227.460 131.300,228.063 131.667 C 228.667 132.033,229.194 132.333,229.235 132.333 C 229.276 132.333,229.920 132.708,230.667 133.167 C 231.413 133.625,232.055 134.000,232.092 134.000 C 232.129 134.000,232.892 134.432,233.788 134.961 C 234.684 135.489,235.604 136.018,235.833 136.137 C 236.700 136.584,236.941 136.837,236.667 137.010 C 235.385 137.819,232.139 139.667,232.001 139.667 C 231.924 139.667,231.836 139.723,231.806 139.792 C 231.752 139.912,230.652 140.549,229.876 140.910 C 229.671 141.005,229.502 141.140,229.501 141.208 C 229.501 141.277,229.428 141.333,229.341 141.333 C 229.253 141.333,228.784 141.569,228.299 141.857 C 227.429 142.373,226.873 142.694,225.772 143.318 C 225.464 143.493,224.706 143.943,224.088 144.318 C 223.471 144.693,222.937 145.000,222.903 145.000 C 222.868 145.000,222.349 145.300,221.750 145.667 C 221.151 146.033,220.628 146.333,220.588 146.333 C 220.548 146.333,220.118 146.570,219.632 146.858 C 216.751 148.573,213.950 150.167,213.819 150.167 C 213.735 150.167,213.667 150.242,213.667 150.333 C 213.667 150.425,213.590 150.500,213.497 150.500 C 213.403 150.500,213.047 150.676,212.705 150.890 C 212.363 151.105,211.746 151.469,211.333 151.700 C 210.223 152.321,209.518 152.727,208.534 153.310 C 208.049 153.598,207.580 153.833,207.493 153.833 C 207.405 153.833,207.333 153.908,207.333 154.000 C 207.333 154.092,207.257 154.167,207.164 154.167 C 207.070 154.167,206.526 154.448,205.955 154.792 C 205.383 155.135,204.635 155.565,204.291 155.746 C 203.948 155.927,203.667 156.156,203.667 156.254 C 203.667 156.406,205.851 157.833,206.083 157.833 C 206.126 157.833,206.651 158.133,207.250 158.500 C 207.849 158.867,208.413 159.167,208.503 159.167 C 208.593 159.167,208.667 159.242,208.667 159.333 C 208.667 159.425,208.736 159.500,208.820 159.500 C 208.905 159.500,209.636 159.885,210.445 160.355 C 211.255 160.825,212.254 161.400,212.667 161.631 C 213.079 161.863,213.696 162.229,214.038 162.443 C 214.380 162.658,214.696 162.833,214.739 162.833 C 214.783 162.833,215.216 163.069,215.701 163.357 C 216.186 163.644,216.827 164.019,217.125 164.190 C 217.423 164.360,217.910 164.640,218.208 164.810 C 218.506 164.981,219.147 165.356,219.632 165.643 C 220.118 165.931,220.586 166.167,220.674 166.167 C 220.762 166.167,220.833 166.242,220.833 166.333 C 220.833 166.425,220.910 166.500,221.003 166.500 C 221.096 166.500,221.667 166.800,222.270 167.167 C 222.874 167.533,223.395 167.833,223.430 167.833 C 223.464 167.833,224.246 168.283,225.167 168.833 C 226.088 169.383,226.869 169.833,226.904 169.833 C 226.938 169.833,227.460 170.133,228.063 170.500 C 228.667 170.867,229.237 171.167,229.330 171.167 C 229.424 171.167,229.500 171.242,229.500 171.333 C 229.500 171.425,229.576 171.500,229.670 171.500 C 229.763 171.500,230.333 171.800,230.937 172.167 C 231.540 172.533,232.062 172.833,232.096 172.833 C 232.131 172.833,232.912 173.283,233.833 173.833 C 234.754 174.383,235.562 174.835,235.629 174.837 C 235.696 174.839,235.938 174.987,236.167 175.167 C 236.578 175.489,237.420 175.617,237.528 175.375 C 237.581 175.255,238.681 174.617,239.457 174.257 C 239.663 174.161,239.831 174.027,239.832 173.958 C 239.833 173.890,239.905 173.833,239.993 173.833 C 240.080 173.833,240.549 173.598,241.034 173.310 C 241.520 173.022,242.160 172.647,242.458 172.477 C 242.756 172.306,243.244 172.027,243.542 171.857 C 243.840 171.686,244.480 171.311,244.966 171.023 C 245.451 170.735,245.920 170.500,246.007 170.500 C 246.095 170.500,246.167 170.425,246.167 170.333 C 246.167 170.242,246.243 170.167,246.336 170.167 C 246.430 170.167,247.000 169.867,247.603 169.500 C 248.207 169.133,248.730 168.833,248.765 168.833 C 248.800 168.833,249.587 168.383,250.514 167.833 C 251.440 167.283,252.227 166.833,252.263 166.833 C 252.298 166.833,252.818 166.533,253.417 166.167 C 254.016 165.800,254.540 165.500,254.582 165.500 C 254.624 165.500,255.412 165.050,256.333 164.500 C 257.254 163.950,258.036 163.500,258.070 163.500 C 258.105 163.500,258.626 163.200,259.230 162.833 C 259.833 162.467,260.404 162.167,260.497 162.167 C 260.590 162.167,260.667 162.092,260.667 162.000 C 260.667 161.908,260.743 161.833,260.836 161.833 C 260.930 161.833,261.500 161.533,262.103 161.167 C 262.707 160.800,263.229 160.500,263.263 160.500 C 263.297 160.500,264.079 160.050,265.000 159.500 C 265.921 158.950,266.742 158.500,266.823 158.500 C 266.905 158.500,266.997 158.444,267.028 158.375 C 267.081 158.255,268.181 157.617,268.957 157.257 C 269.163 157.161,269.331 157.027,269.332 156.958 C 269.333 156.890,269.405 156.833,269.493 156.833 C 269.580 156.833,270.049 156.598,270.534 156.310 C 271.404 155.794,271.960 155.473,273.061 154.849 C 273.370 154.674,274.127 154.224,274.745 153.849 C 275.362 153.474,275.899 153.167,275.937 153.167 C 275.975 153.167,276.286 152.991,276.628 152.776 C 276.970 152.562,277.625 152.180,278.083 151.928 C 278.788 151.540,280.795 150.361,281.667 149.824 C 282.621 149.235,284.887 148.000,285.013 148.000 C 285.098 148.000,285.167 147.925,285.167 147.833 C 285.167 147.742,285.238 147.667,285.326 147.667 C 285.414 147.667,285.882 147.431,286.368 147.143 C 286.853 146.856,287.494 146.481,287.792 146.310 C 288.090 146.140,288.577 145.860,288.875 145.690 C 289.173 145.519,289.814 145.144,290.299 144.857 C 290.784 144.569,291.247 144.333,291.327 144.333 C 291.407 144.333,291.497 144.277,291.528 144.208 C 291.581 144.088,292.681 143.451,293.457 143.090 C 293.663 142.995,293.831 142.860,293.832 142.792 C 293.833 142.723,293.907 142.667,293.996 142.667 C 294.086 142.667,294.912 142.217,295.833 141.667 C 296.754 141.117,297.536 140.667,297.570 140.667 C 297.605 140.667,298.126 140.367,298.730 140.000 C 299.333 139.633,299.904 139.333,299.997 139.333 C 300.090 139.333,300.167 139.258,300.167 139.167 C 300.167 139.075,300.243 139.000,300.336 139.000 C 300.430 139.000,300.973 138.718,301.545 138.374 C 302.116 138.030,302.940 137.561,303.375 137.333 C 304.339 136.827,304.360 136.646,303.502 136.235 C 303.136 136.060,302.836 135.860,302.835 135.792 C 302.834 135.723,302.760 135.667,302.671 135.667 C 302.581 135.667,301.754 135.217,300.833 134.667 C 299.912 134.117,299.131 133.667,299.096 133.667 C 299.062 133.667,298.540 133.367,297.937 133.000 C 297.333 132.633,296.763 132.333,296.670 132.333 C 296.576 132.333,296.500 132.258,296.500 132.167 C 296.500 132.075,296.424 132.000,296.330 132.000 C 296.237 132.000,295.667 131.700,295.063 131.333 C 294.460 130.967,293.938 130.667,293.904 130.667 C 293.869 130.667,293.088 130.217,292.167 129.667 C 291.246 129.117,290.464 128.667,290.430 128.667 C 290.395 128.667,289.874 128.367,289.270 128.000 C 288.667 127.633,288.096 127.333,288.003 127.333 C 287.910 127.333,287.833 127.258,287.833 127.167 C 287.833 127.075,287.759 127.000,287.668 127.000 C 287.577 127.000,286.335 126.325,284.908 125.500 C 283.481 124.675,282.243 124.000,282.156 124.000 C 282.070 124.000,282.000 123.925,282.000 123.833 C 282.000 123.742,281.928 123.667,281.841 123.667 C 281.753 123.667,281.284 123.431,280.799 123.143 C 280.314 122.856,279.673 122.481,279.375 122.310 C 279.077 122.140,278.590 121.860,278.292 121.690 C 277.994 121.519,277.353 121.144,276.868 120.857 C 276.382 120.569,275.920 120.333,275.840 120.333 C 275.760 120.333,275.669 120.277,275.639 120.208 C 275.585 120.088,274.486 119.451,273.710 119.090 C 273.504 118.995,273.335 118.860,273.335 118.792 C 273.334 118.723,273.257 118.667,273.164 118.667 C 273.070 118.667,272.500 118.367,271.897 118.000 C 271.293 117.633,270.713 117.332,270.608 117.330 C 270.503 117.328,270.229 117.179,270.000 117.000 C 269.771 116.821,269.535 116.672,269.475 116.670 C 269.416 116.668,268.891 116.378,268.309 116.026 C 267.726 115.673,265.975 114.649,264.417 113.750 C 259.894 111.141,254.134 107.823,253.500 107.461 C 253.179 107.278,252.296 106.762,251.537 106.314 C 250.777 105.866,250.129 105.500,250.095 105.500 C 250.062 105.500,249.540 105.200,248.937 104.833 C 248.333 104.467,247.763 104.167,247.670 104.167 C 247.576 104.167,247.500 104.092,247.500 104.000 C 247.500 103.908,247.428 103.833,247.341 103.833 C 247.253 103.833,246.784 103.598,246.299 103.310 C 245.814 103.022,245.173 102.647,244.875 102.477 C 244.577 102.306,244.090 102.027,243.792 101.857 C 243.494 101.686,242.853 101.311,242.368 101.023 C 241.882 100.735,241.459 100.500,241.426 100.500 C 241.394 100.500,240.874 100.200,240.270 99.833 C 239.667 99.467,239.096 99.167,239.003 99.167 C 238.910 99.167,238.833 99.092,238.833 99.000 C 238.833 98.908,238.760 98.833,238.671 98.833 C 238.581 98.833,237.754 98.383,236.833 97.833 C 235.912 97.283,235.131 96.833,235.096 96.833 C 235.062 96.833,234.540 96.533,233.937 96.167 C 233.333 95.800,232.806 95.500,232.765 95.500 C 232.724 95.500,232.080 95.125,231.333 94.667 C 230.587 94.208,229.945 93.833,229.908 93.833 C 229.871 93.833,229.088 93.383,228.167 92.833 C 227.246 92.283,226.449 91.833,226.397 91.833 C 226.344 91.833,226.102 91.695,225.859 91.525 C 225.616 91.356,225.004 90.991,224.500 90.714 C 223.996 90.436,222.383 89.516,220.917 88.668 C 217.120 86.473,217.224 86.533,216.583 86.167 C 216.262 85.983,215.737 85.683,215.417 85.500 C 213.973 84.675,213.699 84.516,212.868 84.023 C 212.382 83.735,211.914 83.500,211.826 83.500 C 211.738 83.500,211.667 83.425,211.667 83.333 C 211.667 83.242,211.593 83.167,211.503 83.167 C 211.413 83.167,210.869 82.879,210.295 82.528 C 208.896 81.673,208.440 81.435,208.557 81.624 M92.833 160.755 C 92.833 179.100,92.850 180.183,93.125 180.286 C 93.285 180.346,93.887 180.681,94.461 181.031 C 95.036 181.381,95.539 181.667,95.580 181.667 C 95.651 181.667,97.918 182.987,100.631 184.608 C 101.299 185.007,101.881 185.333,101.926 185.333 C 101.970 185.333,102.286 185.509,102.628 185.724 C 102.970 185.938,103.587 186.303,104.000 186.533 C 105.501 187.373,105.976 187.649,107.078 188.318 C 107.696 188.693,108.238 189.000,108.284 189.000 C 108.329 189.000,108.790 189.254,109.308 189.565 C 111.742 191.027,114.854 192.833,114.939 192.833 C 114.990 192.833,115.231 192.972,115.474 193.141 C 115.718 193.311,116.346 193.682,116.870 193.966 C 117.903 194.527,120.364 195.954,122.289 197.110 C 122.952 197.508,123.571 197.833,123.664 197.833 C 123.757 197.833,123.833 197.900,123.833 197.981 C 123.833 198.062,123.965 198.170,124.125 198.221 C 124.418 198.315,125.409 198.879,127.322 200.042 C 127.888 200.385,128.422 200.667,128.509 200.667 C 128.596 200.667,128.667 200.742,128.667 200.833 C 128.667 200.925,128.738 201.000,128.826 201.000 C 128.914 201.000,129.382 201.235,129.868 201.523 C 130.353 201.811,130.994 202.186,131.292 202.357 C 131.590 202.527,132.077 202.806,132.375 202.977 C 132.673 203.147,133.314 203.522,133.799 203.810 C 134.284 204.098,134.747 204.333,134.827 204.333 C 134.907 204.333,134.997 204.390,135.028 204.458 C 135.081 204.579,136.181 205.216,136.957 205.576 C 137.163 205.672,137.331 205.806,137.332 205.875 C 137.333 205.944,137.407 206.000,137.496 206.000 C 137.586 206.000,138.412 206.450,139.333 207.000 C 140.254 207.550,141.036 208.000,141.070 208.000 C 141.105 208.000,141.626 208.300,142.230 208.667 C 142.833 209.033,143.404 209.333,143.497 209.333 C 143.590 209.333,143.667 209.408,143.667 209.500 C 143.667 209.592,143.743 209.667,143.836 209.667 C 143.930 209.667,144.500 209.967,145.103 210.333 C 145.707 210.700,146.228 211.000,146.262 211.000 C 146.296 211.000,146.958 211.375,147.734 211.833 C 148.510 212.292,149.225 212.667,149.322 212.667 C 149.420 212.667,149.500 212.742,149.500 212.833 C 149.500 212.925,149.576 213.000,149.670 213.000 C 149.763 213.000,150.333 213.300,150.937 213.667 C 151.540 214.033,152.062 214.333,152.096 214.333 C 152.131 214.333,152.912 214.783,153.833 215.333 C 154.754 215.883,155.549 216.333,155.598 216.333 C 155.648 216.333,155.935 216.521,156.235 216.750 C 156.536 216.979,156.838 217.167,156.907 217.167 C 156.976 217.167,157.231 217.305,157.474 217.474 C 158.132 217.932,160.130 219.000,160.328 219.000 C 160.445 219.000,160.500 212.823,160.500 199.608 L 160.500 180.216 159.656 179.692 C 159.191 179.403,158.780 179.167,158.742 179.167 C 158.704 179.167,158.182 178.867,157.583 178.500 C 156.984 178.133,156.456 177.833,156.410 177.833 C 156.364 177.833,156.047 177.658,155.705 177.443 C 155.363 177.229,154.746 176.863,154.333 176.631 C 153.921 176.400,152.908 175.815,152.083 175.332 C 151.258 174.850,150.171 174.229,149.667 173.952 C 149.162 173.675,148.551 173.311,148.308 173.141 C 148.064 172.972,147.822 172.833,147.770 172.833 C 147.717 172.833,146.921 172.383,146.000 171.833 C 145.079 171.283,144.297 170.833,144.263 170.833 C 144.229 170.833,143.707 170.533,143.103 170.167 C 142.500 169.800,141.930 169.500,141.836 169.500 C 141.743 169.500,141.667 169.425,141.667 169.333 C 141.667 169.242,141.590 169.167,141.497 169.167 C 141.404 169.167,140.833 168.867,140.230 168.500 C 139.626 168.133,139.105 167.833,139.070 167.833 C 139.036 167.833,138.254 167.383,137.333 166.833 C 136.412 166.283,135.631 165.833,135.596 165.833 C 135.562 165.833,135.040 165.533,134.437 165.167 C 133.833 164.800,133.263 164.500,133.170 164.500 C 133.076 164.500,133.000 164.425,133.000 164.333 C 133.000 164.242,132.928 164.167,132.841 164.167 C 132.753 164.167,132.284 163.931,131.799 163.643 C 131.314 163.356,130.673 162.981,130.375 162.810 C 130.077 162.640,129.590 162.360,129.292 162.190 C 128.994 162.019,128.353 161.644,127.868 161.357 C 127.382 161.069,126.914 160.833,126.826 160.833 C 126.738 160.833,126.667 160.758,126.667 160.667 C 126.667 160.575,126.593 160.500,126.504 160.500 C 126.414 160.500,125.588 160.050,124.667 159.500 C 123.746 158.950,122.964 158.500,122.930 158.500 C 122.895 158.500,122.374 158.200,121.770 157.833 C 121.167 157.467,120.603 157.167,120.517 157.167 C 120.431 157.167,120.336 157.110,120.306 157.042 C 120.252 156.921,119.152 156.284,118.376 155.924 C 118.171 155.828,118.002 155.694,118.001 155.625 C 118.001 155.556,117.931 155.500,117.846 155.500 C 117.762 155.500,117.044 155.125,116.250 154.667 C 115.456 154.208,114.783 153.833,114.754 153.833 C 114.725 153.833,114.207 153.533,113.603 153.167 C 113.000 152.800,112.430 152.500,112.336 152.500 C 112.243 152.500,112.167 152.425,112.167 152.333 C 112.167 152.242,112.090 152.167,111.997 152.167 C 111.904 152.167,111.333 151.867,110.730 151.500 C 110.126 151.133,109.603 150.833,109.567 150.833 C 109.531 150.833,108.442 150.196,107.147 149.417 C 105.852 148.637,104.772 148.000,104.747 148.000 C 104.721 148.000,104.207 147.700,103.603 147.333 C 103.000 146.967,102.436 146.667,102.350 146.667 C 102.265 146.667,102.169 146.610,102.139 146.542 C 102.085 146.421,100.986 145.784,100.210 145.424 C 100.004 145.328,99.835 145.194,99.835 145.125 C 99.834 145.056,99.760 145.000,99.671 145.000 C 99.581 145.000,98.754 144.550,97.833 144.000 C 96.912 143.450,96.131 143.000,96.096 143.000 C 96.062 143.000,95.540 142.700,94.937 142.333 C 94.333 141.967,93.763 141.667,93.670 141.667 C 93.576 141.667,93.500 141.592,93.500 141.500 C 93.500 141.408,93.350 141.333,93.167 141.333 C 92.835 141.333,92.833 141.444,92.833 160.755 M305.523 142.254 C 304.848 142.664,304.270 143.000,304.238 143.000 C 304.207 143.000,303.784 143.235,303.299 143.523 C 302.429 144.039,301.873 144.361,300.772 144.985 C 300.464 145.160,299.706 145.610,299.088 145.985 C 298.471 146.360,297.937 146.667,297.902 146.667 C 297.840 146.667,296.211 147.616,293.667 149.135 C 292.979 149.546,292.079 150.069,291.667 150.298 C 291.254 150.527,290.374 151.041,289.711 151.440 C 289.048 151.840,288.475 152.167,288.437 152.167 C 288.399 152.167,287.874 152.467,287.270 152.833 C 286.667 153.200,286.096 153.500,286.003 153.500 C 285.910 153.500,285.833 153.575,285.833 153.667 C 285.833 153.758,285.757 153.833,285.664 153.833 C 285.570 153.833,285.000 154.133,284.397 154.500 C 283.793 154.867,283.275 155.167,283.246 155.167 C 283.217 155.167,282.531 155.552,281.721 156.023 C 280.912 156.493,279.837 157.104,279.333 157.380 C 278.829 157.656,278.342 157.938,278.250 158.006 C 278.158 158.075,277.802 158.289,277.458 158.482 C 276.452 159.048,275.807 159.419,274.868 159.977 C 274.382 160.265,273.914 160.500,273.826 160.500 C 273.738 160.500,273.667 160.575,273.667 160.667 C 273.667 160.758,273.590 160.833,273.497 160.833 C 273.404 160.833,272.833 161.133,272.230 161.500 C 271.626 161.867,271.105 162.167,271.070 162.167 C 271.036 162.167,270.254 162.617,269.333 163.167 C 268.412 163.717,267.631 164.167,267.596 164.167 C 267.562 164.167,267.040 164.467,266.437 164.833 C 265.833 165.200,265.263 165.500,265.170 165.500 C 265.076 165.500,265.000 165.575,265.000 165.667 C 265.000 165.758,264.924 165.833,264.830 165.833 C 264.737 165.833,264.167 166.133,263.563 166.500 C 262.960 166.867,262.438 167.167,262.404 167.167 C 262.369 167.167,261.588 167.617,260.667 168.167 C 259.746 168.717,258.964 169.167,258.930 169.167 C 258.895 169.167,258.374 169.467,257.770 169.833 C 257.167 170.200,256.596 170.500,256.503 170.500 C 256.410 170.500,256.333 170.575,256.333 170.667 C 256.333 170.758,256.257 170.833,256.164 170.833 C 256.070 170.833,255.500 171.133,254.897 171.500 C 254.293 171.867,253.771 172.167,253.737 172.167 C 253.703 172.167,252.921 172.617,252.000 173.167 C 251.079 173.717,250.252 174.167,250.163 174.167 C 250.073 174.167,250.000 174.233,250.000 174.314 C 250.000 174.395,249.869 174.503,249.708 174.554 C 249.372 174.661,248.181 175.328,245.583 176.863 C 244.575 177.459,242.850 178.457,241.750 179.081 C 239.514 180.348,239.582 180.304,239.688 180.411 C 239.731 180.453,240.653 179.966,241.737 179.327 C 242.821 178.689,243.737 178.167,243.774 178.167 C 243.810 178.167,244.120 177.991,244.462 177.776 C 244.804 177.562,246.583 176.522,248.417 175.465 C 250.250 174.409,252.500 173.110,253.417 172.579 C 254.820 171.766,260.220 168.648,261.917 167.671 C 262.192 167.513,263.617 166.686,265.083 165.835 C 266.550 164.983,268.162 164.061,268.667 163.786 C 269.171 163.511,269.659 163.227,269.751 163.156 C 269.844 163.084,271.381 162.186,273.168 161.160 C 277.225 158.829,276.901 159.016,280.083 157.168 C 281.550 156.317,283.162 155.395,283.667 155.119 C 284.171 154.844,284.658 154.562,284.750 154.494 C 284.842 154.425,285.198 154.211,285.542 154.018 C 285.885 153.825,286.410 153.526,286.708 153.353 C 287.006 153.181,288.712 152.197,290.500 151.167 C 292.287 150.136,293.994 149.152,294.292 148.980 C 295.436 148.318,296.045 147.967,300.250 145.546 C 302.633 144.173,305.033 142.783,305.583 142.456 L 306.583 141.863 306.626 161.037 C 306.666 179.152,306.652 180.224,306.376 180.428 C 306.215 180.546,304.996 181.261,303.667 182.018 C 302.337 182.774,300.725 183.706,300.083 184.089 C 299.442 184.473,298.579 184.974,298.167 185.204 C 297.301 185.687,289.924 189.945,286.250 192.082 C 284.875 192.882,283.337 193.761,282.833 194.036 C 282.329 194.311,281.842 194.594,281.750 194.666 C 281.616 194.770,278.659 196.487,274.574 198.832 C 274.294 198.993,273.818 199.252,273.517 199.408 C 273.215 199.564,273.008 199.731,273.056 199.779 C 273.133 199.856,274.114 199.386,274.333 199.167 C 274.433 199.067,275.764 198.335,276.290 198.090 C 276.496 197.995,276.665 197.860,276.665 197.792 C 276.666 197.723,276.740 197.667,276.829 197.667 C 276.919 197.667,277.746 197.217,278.667 196.667 C 279.588 196.117,280.369 195.667,280.404 195.667 C 280.438 195.667,280.960 195.367,281.563 195.000 C 282.167 194.633,282.737 194.333,282.830 194.333 C 282.924 194.333,283.000 194.258,283.000 194.167 C 283.000 194.075,283.067 194.000,283.150 194.000 C 283.232 194.000,284.489 193.316,285.942 192.480 C 287.395 191.643,288.921 190.769,289.333 190.536 C 289.746 190.304,290.363 189.938,290.705 189.724 C 291.047 189.509,291.363 189.333,291.408 189.333 C 291.483 189.333,293.680 188.056,296.464 186.392 C 297.132 185.993,297.711 185.667,297.750 185.667 C 297.789 185.667,298.368 185.340,299.036 184.940 C 300.256 184.210,303.603 182.239,305.000 181.428 C 305.412 181.188,305.994 180.868,306.292 180.715 L 306.833 180.438 306.833 160.969 C 306.833 150.261,306.815 141.502,306.792 141.504 C 306.769 141.506,306.198 141.843,305.523 142.254 M239.500 200.231 L 239.500 219.628 240.512 220.231 C 241.069 220.562,241.558 220.833,241.599 220.833 C 241.640 220.833,241.953 221.009,242.295 221.224 C 242.637 221.438,243.254 221.803,243.667 222.035 C 244.079 222.267,245.092 222.852,245.917 223.335 C 248.440 224.812,249.404 225.349,249.708 225.446 C 249.869 225.497,250.000 225.605,250.000 225.686 C 250.000 225.767,250.072 225.833,250.159 225.833 C 250.247 225.833,250.716 226.069,251.201 226.357 C 251.686 226.644,252.327 227.019,252.625 227.190 C 252.923 227.360,253.410 227.640,253.708 227.810 C 254.006 227.981,254.647 228.356,255.132 228.643 C 255.618 228.931,256.086 229.167,256.174 229.167 C 256.262 229.167,256.333 229.242,256.333 229.333 C 256.333 229.425,256.410 229.500,256.503 229.500 C 256.596 229.500,257.167 229.800,257.770 230.167 C 258.374 230.533,258.895 230.833,258.930 230.833 C 258.964 230.833,259.746 231.283,260.667 231.833 C 261.588 232.383,262.369 232.833,262.404 232.833 C 262.438 232.833,262.960 233.133,263.563 233.500 C 264.167 233.867,264.737 234.167,264.830 234.167 C 264.924 234.167,265.000 234.242,265.000 234.333 C 265.000 234.425,265.076 234.500,265.170 234.500 C 265.263 234.500,265.833 234.800,266.437 235.167 C 267.040 235.533,267.562 235.833,267.596 235.833 C 267.631 235.833,268.412 236.283,269.333 236.833 C 270.254 237.383,271.036 237.833,271.070 237.833 C 271.105 237.833,271.626 238.133,272.230 238.500 C 272.833 238.867,273.404 239.167,273.497 239.167 C 273.590 239.167,273.667 239.242,273.667 239.333 C 273.667 239.425,273.743 239.500,273.836 239.500 C 273.930 239.500,274.511 239.809,275.128 240.187 C 276.468 241.009,277.114 241.383,278.333 242.050 C 278.837 242.325,279.438 242.681,279.667 242.840 C 279.896 242.998,280.458 243.337,280.917 243.592 C 281.375 243.847,281.975 244.190,282.250 244.354 C 282.525 244.518,283.012 244.783,283.333 244.942 C 283.654 245.101,284.497 245.592,285.207 246.032 C 285.916 246.473,286.533 246.833,286.579 246.833 C 286.624 246.833,287.151 247.133,287.750 247.500 C 288.349 247.867,288.913 248.167,289.003 248.167 C 289.093 248.167,289.167 248.242,289.167 248.333 C 289.167 248.425,289.317 248.500,289.500 248.500 C 289.683 248.500,289.833 248.575,289.833 248.667 C 289.833 248.758,289.910 248.833,290.003 248.833 C 290.097 248.833,290.491 249.038,290.878 249.288 C 291.763 249.859,292.022 250.018,292.611 250.348 C 294.381 251.341,294.841 251.607,295.583 252.069 C 296.042 252.354,296.829 252.804,297.333 253.068 C 297.837 253.332,298.368 253.650,298.513 253.774 C 298.658 253.898,298.864 254.000,298.971 254.000 C 299.079 254.000,299.167 254.075,299.167 254.167 C 299.167 254.258,299.310 254.333,299.486 254.333 C 299.662 254.333,299.831 254.394,299.861 254.469 C 299.892 254.544,300.329 254.830,300.833 255.106 C 302.502 256.020,303.412 256.544,303.833 256.836 C 304.063 256.995,304.831 257.439,305.542 257.824 L 306.833 258.522 306.833 239.031 C 306.833 223.636,306.790 219.507,306.625 219.379 C 306.510 219.290,306.079 219.037,305.667 218.817 C 305.254 218.597,304.879 218.379,304.833 218.333 C 304.733 218.233,303.402 217.501,302.876 217.257 C 302.671 217.161,302.502 217.027,302.501 216.958 C 302.501 216.890,302.424 216.833,302.330 216.833 C 302.237 216.833,301.619 216.505,300.955 216.103 C 299.150 215.010,295.127 212.667,295.056 212.667 C 295.021 212.667,294.714 212.491,294.372 212.276 C 294.030 212.062,293.412 211.697,293.000 211.465 C 292.587 211.233,291.575 210.649,290.750 210.167 C 289.925 209.685,288.912 209.100,288.500 208.869 C 288.087 208.637,287.470 208.271,287.128 208.057 C 286.786 207.842,286.466 207.667,286.417 207.667 C 286.367 207.667,286.047 207.491,285.705 207.276 C 285.363 207.062,284.746 206.697,284.333 206.467 C 283.223 205.845,282.518 205.440,281.534 204.857 C 281.049 204.569,280.580 204.333,280.493 204.333 C 280.405 204.333,280.333 204.258,280.333 204.167 C 280.333 204.075,280.257 204.000,280.164 204.000 C 280.070 204.000,279.500 203.700,278.897 203.333 C 278.293 202.967,277.768 202.667,277.730 202.667 C 277.692 202.667,277.119 202.340,276.455 201.940 C 275.099 201.123,274.082 200.546,272.500 199.696 C 271.904 199.376,270.678 198.676,269.776 198.140 C 268.874 197.605,268.104 197.167,268.065 197.167 C 268.025 197.167,267.714 196.991,267.372 196.776 C 267.030 196.562,266.412 196.197,266.000 195.965 C 265.587 195.733,264.575 195.149,263.750 194.667 C 262.925 194.185,261.912 193.600,261.500 193.369 C 261.087 193.137,260.470 192.771,260.128 192.557 C 259.786 192.342,259.469 192.167,259.423 192.167 C 259.377 192.167,258.849 191.867,258.250 191.500 C 257.651 191.133,257.135 190.833,257.102 190.833 C 257.070 190.833,256.167 190.308,255.095 189.667 C 254.023 189.025,253.114 188.500,253.076 188.500 C 253.037 188.500,252.516 188.200,251.917 187.833 C 251.318 187.467,250.801 187.167,250.769 187.167 C 250.737 187.167,249.304 186.342,247.583 185.333 C 245.863 184.325,244.429 183.500,244.397 183.500 C 244.365 183.500,243.849 183.200,243.250 182.833 C 242.651 182.467,242.126 182.167,242.083 182.167 C 242.041 182.167,241.516 181.867,240.917 181.500 C 240.318 181.133,239.754 180.833,239.664 180.833 C 239.557 180.833,239.500 187.642,239.500 200.231 M162.000 225.000 C 161.587 225.261,161.156 225.480,161.042 225.487 C 160.927 225.494,160.833 225.575,160.833 225.667 C 160.833 225.758,160.757 225.833,160.664 225.833 C 160.570 225.833,160.000 226.133,159.397 226.500 C 158.793 226.867,158.271 227.167,158.237 227.167 C 158.203 227.167,157.421 227.617,156.500 228.167 C 155.579 228.717,154.797 229.167,154.763 229.167 C 154.729 229.167,154.207 229.467,153.603 229.833 C 153.000 230.200,152.430 230.500,152.336 230.500 C 152.243 230.500,152.167 230.575,152.167 230.667 C 152.167 230.758,152.095 230.833,152.007 230.833 C 151.920 230.833,151.451 231.069,150.966 231.357 C 149.982 231.940,149.277 232.345,148.167 232.967 C 147.754 233.197,147.137 233.562,146.795 233.776 C 146.453 233.991,146.136 234.167,146.091 234.167 C 146.045 234.167,145.254 234.617,144.333 235.167 C 143.412 235.717,142.626 236.167,142.586 236.167 C 142.546 236.167,142.042 236.466,141.465 236.832 C 140.888 237.198,140.323 237.498,140.208 237.498 C 140.094 237.499,140.000 237.575,140.000 237.667 C 140.000 237.758,139.928 237.833,139.841 237.833 C 139.753 237.833,139.284 238.069,138.799 238.357 C 138.314 238.644,137.692 239.008,137.417 239.165 C 137.142 239.322,135.731 240.136,134.281 240.975 C 132.832 241.814,131.576 242.500,131.490 242.500 C 131.404 242.500,131.333 242.575,131.333 242.667 C 131.333 242.758,131.262 242.833,131.174 242.833 C 131.086 242.833,130.618 243.069,130.132 243.358 C 129.647 243.646,128.837 244.108,128.333 244.383 C 127.829 244.659,127.218 245.023,126.974 245.192 C 126.731 245.361,126.489 245.500,126.437 245.500 C 126.384 245.500,125.588 245.950,124.667 246.500 C 123.746 247.050,122.965 247.500,122.932 247.500 C 122.899 247.500,122.075 247.987,121.102 248.583 C 120.129 249.179,119.258 249.667,119.166 249.667 C 119.075 249.667,119.000 249.742,119.000 249.833 C 119.000 249.925,118.924 250.000,118.830 250.000 C 118.737 250.000,118.167 250.300,117.563 250.667 C 116.960 251.033,116.442 251.333,116.413 251.333 C 116.384 251.333,115.710 251.708,114.917 252.167 C 114.123 252.625,113.405 253.000,113.320 253.000 C 113.236 253.000,113.167 253.075,113.167 253.167 C 113.167 253.258,113.093 253.333,113.003 253.333 C 112.913 253.333,112.349 253.633,111.750 254.000 C 111.151 254.367,110.626 254.667,110.584 254.667 C 110.542 254.667,109.754 255.117,108.833 255.667 C 107.912 256.217,107.131 256.667,107.096 256.667 C 107.062 256.667,106.540 256.967,105.937 257.333 C 105.333 257.700,104.763 258.000,104.670 258.000 C 104.576 258.000,104.500 258.075,104.500 258.167 C 104.500 258.258,104.424 258.333,104.330 258.333 C 104.237 258.333,103.667 258.633,103.063 259.000 C 102.460 259.367,101.938 259.667,101.904 259.667 C 101.869 259.667,101.088 260.117,100.167 260.667 C 99.246 261.217,98.464 261.667,98.430 261.667 C 98.395 261.667,97.874 261.967,97.270 262.333 C 96.667 262.700,96.096 263.000,96.003 263.000 C 95.520 263.000,95.910 263.624,96.625 263.996 C 97.060 264.223,97.454 264.448,97.500 264.496 C 97.597 264.597,98.909 265.322,99.457 265.576 C 99.663 265.672,99.831 265.806,99.832 265.875 C 99.833 265.944,99.907 266.000,99.996 266.000 C 100.086 266.000,100.912 266.450,101.833 267.000 C 102.754 267.550,103.536 268.000,103.570 268.000 C 103.605 268.000,104.126 268.300,104.730 268.667 C 105.333 269.033,105.904 269.333,105.997 269.333 C 106.090 269.333,106.167 269.408,106.167 269.500 C 106.167 269.592,106.237 269.667,106.323 269.667 C 106.409 269.667,107.665 270.353,109.115 271.192 C 110.564 272.030,111.975 272.845,112.250 273.002 C 112.525 273.158,113.147 273.522,113.632 273.810 C 114.118 274.098,114.547 274.333,114.587 274.333 C 114.626 274.333,115.412 274.783,116.333 275.333 C 117.254 275.883,118.036 276.333,118.070 276.333 C 118.105 276.333,118.626 276.633,119.230 277.000 C 119.833 277.367,120.404 277.667,120.497 277.667 C 120.590 277.667,120.667 277.742,120.667 277.833 C 120.667 277.925,120.738 278.000,120.826 278.000 C 120.914 278.000,121.382 278.235,121.868 278.523 C 122.353 278.811,122.994 279.186,123.292 279.357 C 123.590 279.527,124.077 279.806,124.375 279.977 C 124.673 280.147,125.314 280.522,125.799 280.810 C 126.284 281.098,126.753 281.333,126.841 281.333 C 126.928 281.333,127.000 281.408,127.000 281.500 C 127.000 281.592,127.072 281.667,127.159 281.667 C 127.247 281.667,127.700 281.892,128.167 282.167 C 129.302 282.836,129.402 282.820,131.333 281.667 C 132.254 281.117,133.036 280.667,133.070 280.667 C 133.105 280.667,133.626 280.367,134.230 280.000 C 134.833 279.633,135.404 279.333,135.497 279.333 C 135.590 279.333,135.667 279.258,135.667 279.167 C 135.667 279.075,135.743 279.000,135.836 279.000 C 135.930 279.000,136.500 278.700,137.103 278.333 C 137.707 277.967,138.229 277.667,138.263 277.667 C 138.297 277.667,139.079 277.217,140.000 276.667 C 140.921 276.117,141.703 275.667,141.737 275.667 C 141.771 275.667,142.293 275.367,142.897 275.000 C 143.500 274.633,144.070 274.333,144.164 274.333 C 144.257 274.333,144.333 274.258,144.333 274.167 C 144.333 274.075,144.410 274.000,144.503 274.000 C 144.596 274.000,145.167 273.700,145.770 273.333 C 146.374 272.967,146.895 272.667,146.930 272.667 C 146.964 272.667,147.746 272.217,148.667 271.667 C 149.588 271.117,150.378 270.667,150.424 270.667 C 150.469 270.667,150.786 270.491,151.128 270.276 C 151.470 270.062,152.087 269.697,152.500 269.467 C 153.611 268.845,154.315 268.440,155.299 267.857 C 155.784 267.569,156.247 267.333,156.327 267.333 C 156.407 267.333,156.497 267.277,156.528 267.208 C 156.581 267.088,157.681 266.451,158.457 266.090 C 158.663 265.995,158.831 265.860,158.832 265.792 C 158.833 265.723,158.907 265.667,158.996 265.667 C 159.086 265.667,159.912 265.217,160.833 264.667 C 161.754 264.117,162.549 263.667,162.598 263.667 C 162.648 263.667,162.935 263.479,163.235 263.250 C 163.536 263.021,163.821 262.833,163.869 262.833 C 163.917 262.833,164.833 262.308,165.905 261.667 C 166.977 261.025,167.886 260.500,167.924 260.500 C 167.963 260.500,168.484 260.200,169.083 259.833 C 169.682 259.467,170.203 259.167,170.241 259.167 C 170.278 259.167,171.374 258.529,172.676 257.750 C 173.978 256.971,175.070 256.333,175.102 256.333 C 175.134 256.333,175.651 256.033,176.250 255.667 C 176.849 255.300,177.377 255.000,177.423 255.000 C 177.469 255.000,177.786 254.824,178.128 254.610 C 178.470 254.395,179.088 254.030,179.500 253.798 C 179.912 253.566,180.925 252.982,181.750 252.500 C 182.575 252.018,183.588 251.436,184.000 251.206 C 184.412 250.977,184.825 250.734,184.917 250.667 C 185.008 250.600,185.436 250.351,185.867 250.113 C 186.298 249.876,187.814 249.004,189.237 248.174 C 190.659 247.345,191.900 246.667,191.995 246.667 C 192.089 246.667,192.167 246.592,192.167 246.500 C 192.167 246.408,192.243 246.333,192.337 246.333 C 192.430 246.333,192.786 246.157,193.128 245.942 C 193.470 245.726,194.275 245.264,194.917 244.915 C 196.860 243.858,196.803 243.942,195.971 243.377 C 195.575 243.107,194.725 242.601,194.083 242.252 C 193.442 241.902,192.637 241.440,192.295 241.225 C 191.953 241.010,191.597 240.833,191.503 240.833 C 191.410 240.833,191.333 240.758,191.333 240.667 C 191.333 240.575,191.264 240.500,191.180 240.500 C 191.095 240.500,190.364 240.115,189.555 239.645 C 188.745 239.175,187.746 238.600,187.333 238.369 C 186.921 238.137,186.304 237.771,185.962 237.557 C 185.620 237.342,185.299 237.167,185.250 237.167 C 185.201 237.167,184.880 236.991,184.538 236.776 C 184.196 236.562,183.579 236.197,183.167 235.967 C 182.056 235.345,181.352 234.940,180.368 234.357 C 179.882 234.069,179.414 233.833,179.326 233.833 C 179.238 233.833,179.167 233.758,179.167 233.667 C 179.167 233.575,179.090 233.500,178.997 233.500 C 178.904 233.500,178.333 233.200,177.730 232.833 C 177.126 232.467,176.605 232.167,176.570 232.167 C 176.536 232.167,175.754 231.717,174.833 231.167 C 173.912 230.617,173.131 230.167,173.096 230.167 C 173.062 230.167,172.540 229.867,171.937 229.500 C 171.333 229.133,170.763 228.833,170.670 228.833 C 170.576 228.833,170.500 228.758,170.500 228.667 C 170.500 228.575,170.424 228.500,170.330 228.500 C 170.237 228.500,169.667 228.200,169.063 227.833 C 168.460 227.467,167.938 227.167,167.904 227.167 C 167.869 227.167,167.088 226.717,166.167 226.167 C 165.246 225.617,164.438 225.165,164.371 225.163 C 164.304 225.161,164.063 225.013,163.833 224.833 C 163.278 224.399,162.896 224.434,162.000 225.000 M235.248 225.354 C 234.882 225.548,234.041 226.036,233.378 226.437 C 232.715 226.838,232.141 227.167,232.103 227.167 C 232.065 227.167,231.540 227.467,230.937 227.833 C 230.333 228.200,229.763 228.500,229.670 228.500 C 229.576 228.500,229.500 228.575,229.500 228.667 C 229.500 228.758,229.424 228.833,229.330 228.833 C 229.237 228.833,228.667 229.133,228.063 229.500 C 227.460 229.867,226.938 230.167,226.904 230.167 C 226.869 230.167,226.088 230.617,225.167 231.167 C 224.246 231.717,223.464 232.167,223.430 232.167 C 223.395 232.167,222.874 232.467,222.270 232.833 C 221.667 233.200,221.096 233.500,221.003 233.500 C 220.910 233.500,220.833 233.575,220.833 233.667 C 220.833 233.758,220.762 233.833,220.674 233.833 C 220.586 233.833,220.118 234.069,219.632 234.357 C 219.147 234.644,218.506 235.019,218.208 235.190 C 217.910 235.360,217.423 235.640,217.125 235.810 C 216.827 235.981,216.186 236.356,215.701 236.643 C 215.216 236.931,214.783 237.167,214.739 237.167 C 214.696 237.167,214.380 237.342,214.038 237.557 C 213.696 237.771,213.079 238.136,212.667 238.367 C 211.556 238.988,210.852 239.393,209.868 239.977 C 209.382 240.265,208.914 240.500,208.826 240.500 C 208.738 240.500,208.667 240.575,208.667 240.667 C 208.667 240.758,208.590 240.833,208.497 240.833 C 208.403 240.833,208.047 241.009,207.705 241.224 C 207.363 241.438,206.708 241.820,206.250 242.072 C 205.792 242.324,204.760 242.917,203.958 243.390 L 202.500 244.250 202.500 283.125 C 202.500 317.569,202.528 322.000,202.750 322.000 C 202.887 322.000,203.000 321.925,203.000 321.833 C 203.000 321.742,203.072 321.667,203.159 321.667 C 203.247 321.667,203.716 321.431,204.201 321.143 C 204.686 320.856,205.327 320.481,205.625 320.310 C 205.923 320.140,206.410 319.860,206.708 319.690 C 207.006 319.519,207.647 319.144,208.132 318.857 C 208.618 318.569,209.086 318.333,209.174 318.333 C 209.262 318.333,209.334 318.277,209.335 318.208 C 209.335 318.140,209.504 318.005,209.710 317.910 C 210.423 317.579,211.584 316.916,211.788 316.724 C 211.901 316.618,212.219 316.431,212.496 316.308 C 212.773 316.186,213.000 316.029,213.000 315.959 C 213.000 315.890,213.076 315.833,213.170 315.833 C 213.263 315.833,213.833 315.533,214.437 315.167 C 215.040 314.800,215.558 314.500,215.587 314.500 C 215.616 314.500,216.290 314.125,217.083 313.667 C 217.877 313.208,218.595 312.833,218.680 312.833 C 218.764 312.833,218.833 312.758,218.833 312.667 C 218.833 312.575,218.910 312.500,219.003 312.500 C 219.096 312.500,219.667 312.200,220.270 311.833 C 220.874 311.467,221.395 311.167,221.430 311.167 C 221.464 311.167,222.246 310.717,223.167 310.167 C 224.088 309.617,224.908 309.167,224.990 309.167 C 225.072 309.167,225.164 309.110,225.194 309.042 C 225.248 308.921,226.348 308.284,227.124 307.924 C 227.329 307.828,227.498 307.694,227.499 307.625 C 227.499 307.556,227.572 307.500,227.659 307.500 C 227.747 307.500,228.216 307.265,228.701 306.977 C 229.186 306.689,229.827 306.314,230.125 306.143 C 230.423 305.973,230.910 305.694,231.208 305.523 C 231.506 305.353,232.147 304.978,232.632 304.690 C 233.118 304.402,233.586 304.167,233.674 304.167 C 233.762 304.167,233.834 304.110,233.836 304.042 C 233.837 303.973,234.220 303.729,234.686 303.500 C 235.152 303.271,235.819 302.821,236.167 302.500 C 236.515 302.179,237.181 301.729,237.647 301.500 C 238.113 301.271,238.496 301.027,238.497 300.958 C 238.499 300.890,238.572 300.833,238.659 300.833 C 238.747 300.833,239.216 300.598,239.701 300.310 C 240.186 300.022,240.827 299.647,241.125 299.477 C 241.423 299.306,241.910 299.027,242.208 298.857 C 242.506 298.686,243.147 298.311,243.632 298.023 C 244.118 297.735,244.586 297.500,244.674 297.500 C 244.762 297.500,244.833 297.425,244.833 297.333 C 244.833 297.242,244.910 297.167,245.003 297.167 C 245.096 297.167,245.667 296.867,246.270 296.500 C 246.874 296.133,247.395 295.833,247.430 295.833 C 247.464 295.833,248.246 295.383,249.167 294.833 C 250.088 294.283,250.876 293.833,250.918 293.833 C 250.960 293.833,251.484 293.533,252.083 293.167 C 252.682 292.800,253.210 292.500,253.256 292.500 C 253.302 292.500,253.881 292.173,254.545 291.774 C 256.067 290.857,258.804 289.275,260.000 288.620 C 260.504 288.344,260.992 288.062,261.083 287.994 C 261.175 287.925,261.512 287.722,261.833 287.543 C 262.154 287.363,263.617 286.519,265.083 285.667 C 266.550 284.814,268.106 283.923,268.542 283.686 C 268.977 283.449,269.333 283.191,269.333 283.114 C 269.333 283.036,269.090 283.120,268.792 283.300 C 268.494 283.481,266.712 284.509,264.833 285.587 C 262.954 286.664,259.804 288.477,257.833 289.617 C 255.862 290.756,254.137 291.753,254.000 291.831 C 253.862 291.910,253.338 292.216,252.833 292.512 C 250.840 293.682,245.532 296.737,244.667 297.213 C 244.162 297.491,243.563 297.845,243.333 298.000 C 243.104 298.155,242.504 298.507,242.000 298.780 C 241.496 299.054,240.146 299.827,239.000 300.498 C 237.854 301.169,236.729 301.818,236.500 301.940 L 236.083 302.162 236.040 283.123 C 236.017 272.651,236.031 263.996,236.071 263.889 C 236.136 263.720,236.875 263.245,238.750 262.167 C 239.025 262.009,240.975 260.884,243.083 259.667 C 245.192 258.450,247.329 257.229,247.833 256.953 C 248.338 256.678,248.825 256.394,248.917 256.324 C 249.085 256.195,252.606 254.151,254.000 253.373 C 254.412 253.143,255.200 252.692,255.750 252.371 C 256.300 252.050,256.994 251.648,257.292 251.477 C 258.027 251.056,258.494 250.786,261.583 248.995 C 263.050 248.145,264.737 247.173,265.333 246.834 C 265.929 246.495,267.326 245.690,268.438 245.046 L 270.459 243.875 272.188 244.876 C 273.139 245.427,274.329 246.104,274.833 246.381 C 275.337 246.658,275.938 247.011,276.167 247.167 C 276.396 247.322,276.996 247.674,277.500 247.949 C 278.004 248.223,280.142 249.446,282.250 250.666 C 284.358 251.885,286.308 253.013,286.583 253.171 C 286.858 253.330,288.283 254.153,289.750 255.000 C 291.217 255.847,292.642 256.670,292.917 256.829 C 293.192 256.987,295.142 258.114,297.250 259.333 C 299.358 260.552,301.346 261.697,301.667 261.877 C 303.291 262.789,303.677 263.056,303.553 263.180 C 303.478 263.254,301.767 264.266,299.750 265.428 C 297.733 266.591,295.858 267.672,295.583 267.831 C 294.667 268.361,287.424 272.538,286.917 272.830 C 286.642 272.988,285.217 273.814,283.750 274.665 C 282.283 275.517,280.671 276.439,280.167 276.714 C 279.662 276.989,279.175 277.271,279.083 277.340 C 278.992 277.408,278.635 277.622,278.292 277.816 C 277.948 278.009,277.423 278.308,277.125 278.480 C 276.827 278.652,275.142 279.622,273.379 280.634 C 270.147 282.491,269.323 283.000,269.549 283.000 C 269.617 283.000,270.167 282.700,270.770 282.333 C 271.374 281.967,271.895 281.667,271.930 281.667 C 271.964 281.667,272.746 281.217,273.667 280.667 C 274.588 280.117,275.369 279.667,275.404 279.667 C 275.438 279.667,275.960 279.367,276.563 279.000 C 277.167 278.633,277.737 278.333,277.830 278.333 C 277.924 278.333,278.000 278.258,278.000 278.167 C 278.000 278.075,278.076 278.000,278.170 278.000 C 278.263 278.000,278.833 277.700,279.437 277.333 C 280.040 276.967,280.565 276.667,280.603 276.667 C 280.641 276.667,281.215 276.340,281.878 275.940 C 282.541 275.541,283.421 275.026,283.833 274.797 C 284.246 274.568,284.865 274.220,285.208 274.024 C 286.186 273.465,286.953 273.027,287.542 272.690 C 287.840 272.519,288.496 272.133,289.000 271.831 C 290.600 270.874,291.907 270.150,292.208 270.054 C 292.369 270.003,292.500 269.895,292.500 269.814 C 292.500 269.733,292.572 269.667,292.659 269.667 C 292.747 269.667,293.216 269.431,293.701 269.143 C 294.571 268.627,295.127 268.306,296.228 267.682 C 296.536 267.507,297.294 267.057,297.912 266.682 C 298.529 266.307,299.061 266.000,299.093 266.000 C 299.125 266.000,299.549 265.764,300.034 265.477 C 300.520 265.189,301.254 264.767,301.667 264.541 C 303.777 263.379,304.473 262.667,303.497 262.667 C 303.426 262.667,302.874 262.367,302.270 262.000 C 301.667 261.633,301.096 261.333,301.003 261.333 C 300.910 261.333,300.833 261.258,300.833 261.167 C 300.833 261.075,300.757 261.000,300.664 261.000 C 300.570 261.000,300.000 260.700,299.397 260.333 C 298.793 259.967,298.271 259.667,298.237 259.667 C 298.203 259.667,297.421 259.217,296.500 258.667 C 295.579 258.117,294.797 257.667,294.763 257.667 C 294.729 257.667,294.207 257.367,293.603 257.000 C 293.000 256.633,292.430 256.333,292.336 256.333 C 292.243 256.333,292.167 256.258,292.167 256.167 C 292.167 256.075,292.098 256.000,292.013 256.000 C 291.857 256.000,289.569 254.713,287.378 253.393 C 286.715 252.993,286.126 252.667,286.070 252.667 C 286.014 252.667,285.769 252.528,285.526 252.358 C 285.282 252.188,284.483 251.728,283.750 251.335 C 283.017 250.942,282.342 250.563,282.250 250.494 C 282.096 250.378,278.009 247.973,276.667 247.209 C 276.346 247.026,274.827 246.150,273.292 245.261 L 270.501 243.646 269.625 244.114 C 269.144 244.372,268.725 244.640,268.694 244.708 C 268.664 244.777,268.571 244.833,268.489 244.833 C 268.407 244.833,267.849 245.133,267.250 245.500 C 266.651 245.867,266.127 246.167,266.086 246.167 C 266.009 246.167,263.448 247.665,260.629 249.359 C 259.737 249.895,258.976 250.333,258.937 250.333 C 258.899 250.333,258.374 250.633,257.770 251.000 C 257.167 251.367,256.596 251.667,256.503 251.667 C 256.410 251.667,256.333 251.742,256.333 251.833 C 256.333 251.925,256.257 252.000,256.164 252.000 C 256.070 252.000,255.500 252.300,254.897 252.667 C 254.293 253.033,253.771 253.333,253.737 253.333 C 253.703 253.333,252.921 253.783,252.000 254.333 C 251.079 254.883,250.283 255.333,250.230 255.333 C 250.178 255.333,249.936 255.472,249.692 255.641 C 249.449 255.811,248.838 256.175,248.333 256.450 C 247.199 257.070,246.511 257.464,245.333 258.169 C 243.734 259.126,242.426 259.850,242.125 259.946 C 241.965 259.997,241.833 260.105,241.833 260.186 C 241.833 260.267,241.760 260.333,241.671 260.333 C 241.581 260.333,240.754 260.783,239.833 261.333 C 238.912 261.883,238.126 262.333,238.085 262.333 C 238.045 262.333,237.657 262.558,237.223 262.833 C 236.790 263.108,236.374 263.333,236.301 263.333 C 236.227 263.333,236.167 254.708,236.167 244.167 C 236.167 233.625,236.109 225.000,236.039 225.000 C 235.969 225.000,235.613 225.159,235.248 225.354 M123.667 240.777 C 122.337 241.556,120.950 242.364,120.583 242.572 C 120.217 242.780,118.192 243.948,116.083 245.167 C 113.975 246.385,112.025 247.513,111.750 247.671 C 111.475 247.830,110.050 248.653,108.583 249.501 C 107.117 250.349,105.504 251.270,105.000 251.547 C 104.496 251.824,103.896 252.178,103.667 252.333 C 103.438 252.489,102.837 252.842,102.333 253.119 C 101.829 253.396,100.479 254.169,99.333 254.836 C 98.188 255.503,97.063 256.154,96.833 256.283 C 96.604 256.411,96.042 256.737,95.583 257.007 C 95.125 257.277,94.356 257.701,93.875 257.950 C 93.394 258.199,93.000 258.462,93.000 258.535 C 93.000 258.749,93.119 258.699,94.270 258.000 C 94.874 257.633,95.394 257.333,95.426 257.333 C 95.459 257.333,95.882 257.098,96.368 256.810 C 96.853 256.522,97.475 256.157,97.750 255.998 C 98.025 255.839,98.925 255.315,99.750 254.832 C 100.575 254.350,101.662 253.729,102.167 253.453 C 102.671 253.178,103.158 252.896,103.250 252.827 C 103.342 252.759,104.425 252.122,105.658 251.412 C 106.891 250.703,108.637 249.682,109.537 249.145 C 110.438 248.607,111.203 248.167,111.237 248.167 C 111.271 248.167,111.793 247.867,112.397 247.500 C 113.000 247.133,113.570 246.833,113.664 246.833 C 113.757 246.833,113.833 246.758,113.833 246.667 C 113.833 246.575,113.905 246.500,113.993 246.500 C 114.080 246.500,114.549 246.265,115.034 245.977 C 116.236 245.264,116.920 244.873,118.000 244.283 C 118.504 244.008,119.116 243.644,119.359 243.475 C 119.602 243.305,119.843 243.167,119.893 243.167 C 119.944 243.167,120.382 242.931,120.868 242.643 C 121.353 242.356,121.975 241.990,122.250 241.831 C 122.525 241.673,123.425 241.147,124.250 240.664 C 125.075 240.180,125.938 239.684,126.167 239.560 C 126.396 239.437,126.471 239.341,126.333 239.348 C 126.196 239.355,124.996 239.998,123.667 240.777 M163.167 302.329 C 163.167 302.423,163.238 302.500,163.326 302.500 C 163.414 302.500,163.882 302.735,164.368 303.023 C 164.853 303.311,165.494 303.686,165.792 303.857 C 166.090 304.027,166.577 304.306,166.875 304.477 C 167.173 304.647,167.814 305.022,168.299 305.310 C 168.784 305.598,169.253 305.833,169.341 305.833 C 169.428 305.833,169.500 305.908,169.500 306.000 C 169.500 306.092,169.569 306.167,169.653 306.167 C 169.809 306.167,172.098 307.454,174.289 308.774 C 174.952 309.173,175.540 309.500,175.596 309.500 C 175.653 309.500,175.898 309.639,176.141 309.808 C 176.384 309.977,176.996 310.343,177.500 310.620 C 178.004 310.897,179.605 311.808,181.058 312.645 C 182.511 313.482,183.768 314.167,183.850 314.167 C 183.933 314.167,184.000 314.242,184.000 314.333 C 184.000 314.425,184.072 314.500,184.159 314.500 C 184.247 314.500,184.716 314.736,185.201 315.024 C 185.686 315.313,186.496 315.773,187.000 316.048 C 187.504 316.322,188.029 316.637,188.167 316.747 C 188.304 316.858,189.129 317.347,190.000 317.835 C 190.871 318.323,191.771 318.848,192.000 319.002 C 192.229 319.156,192.829 319.508,193.333 319.784 C 193.838 320.060,194.713 320.559,195.278 320.893 C 195.843 321.227,196.406 321.498,196.528 321.495 C 196.650 321.492,196.600 321.408,196.417 321.307 C 196.233 321.206,195.483 320.770,194.750 320.336 C 194.017 319.903,193.079 319.360,192.667 319.128 C 190.869 318.119,185.404 314.962,185.251 314.844 C 185.159 314.773,184.671 314.489,184.167 314.212 C 183.662 313.936,182.050 313.016,180.583 312.168 C 179.117 311.320,177.692 310.496,177.417 310.338 C 177.142 310.179,175.192 309.052,173.083 307.833 C 170.975 306.614,169.023 305.489,168.746 305.333 C 168.469 305.176,167.323 304.513,166.198 303.859 C 163.534 302.308,163.167 302.123,163.167 302.329 " stroke="none" fill="#ffffff" fill-rule="evenodd"></path><path id="path1" d="M202.667 97.545 L 202.667 116.795 204.919 118.076 C 206.285 118.852,207.128 119.428,207.060 119.537 C 206.995 119.643,207.026 119.670,207.136 119.602 C 207.375 119.455,209.432 120.593,209.371 120.840 C 209.346 120.942,209.396 120.981,209.483 120.927 C 209.570 120.873,210.590 121.374,211.749 122.040 C 212.908 122.705,214.132 123.405,214.470 123.594 C 214.807 123.783,216.096 124.527,217.333 125.247 C 218.571 125.968,220.521 127.094,221.667 127.750 C 222.813 128.406,224.762 129.532,226.000 130.252 C 227.237 130.972,228.569 131.742,228.959 131.962 C 229.359 132.188,229.620 132.440,229.558 132.540 C 229.493 132.647,229.528 132.669,229.645 132.597 C 229.754 132.529,230.374 132.785,231.045 133.176 C 231.708 133.561,232.588 134.065,233.000 134.296 C 233.412 134.527,234.350 135.074,235.083 135.511 C 237.387 136.886,237.046 136.880,239.289 135.583 C 240.367 134.959,241.662 134.224,242.167 133.949 C 242.671 133.674,243.282 133.311,243.526 133.141 C 243.769 132.972,244.006 132.833,244.052 132.833 C 244.098 132.833,244.894 132.383,245.820 131.833 C 246.746 131.283,247.533 130.833,247.568 130.833 C 247.604 130.833,248.126 130.533,248.730 130.167 C 249.333 129.800,249.904 129.500,249.997 129.500 C 250.090 129.500,250.167 129.425,250.167 129.333 C 250.167 129.242,250.238 129.167,250.326 129.167 C 250.414 129.167,250.882 128.931,251.368 128.643 C 251.853 128.356,252.494 127.981,252.792 127.810 C 253.090 127.640,253.577 127.360,253.875 127.190 C 254.173 127.019,254.814 126.644,255.299 126.357 C 255.784 126.069,256.247 125.833,256.327 125.833 C 256.407 125.833,256.497 125.777,256.528 125.708 C 256.581 125.588,257.681 124.951,258.457 124.590 C 258.663 124.495,258.831 124.360,258.832 124.292 C 258.833 124.223,258.907 124.167,258.996 124.167 C 259.086 124.167,259.912 123.717,260.833 123.167 C 261.754 122.617,262.542 122.167,262.584 122.167 C 262.626 122.167,263.151 121.867,263.750 121.500 C 264.349 121.133,264.913 120.833,265.003 120.833 C 265.093 120.833,265.167 120.758,265.167 120.667 C 265.167 120.575,265.235 120.500,265.320 120.500 C 265.803 120.500,270.491 117.588,270.295 117.409 C 270.114 117.244,268.121 116.085,263.000 113.167 C 259.683 111.277,258.861 110.758,258.951 110.611 C 259.006 110.522,258.968 110.500,258.866 110.563 C 258.764 110.626,258.257 110.431,257.739 110.130 C 257.220 109.830,256.373 109.345,255.856 109.053 C 255.340 108.761,254.937 108.437,254.962 108.332 C 254.988 108.228,254.940 108.184,254.856 108.236 C 254.634 108.373,252.495 107.142,252.616 106.947 C 252.674 106.853,252.633 106.834,252.522 106.903 C 252.414 106.970,251.935 106.784,251.455 106.488 C 250.975 106.193,250.171 105.728,249.667 105.456 C 249.162 105.184,248.551 104.820,248.308 104.647 C 248.064 104.475,247.808 104.333,247.738 104.333 C 247.668 104.333,247.080 104.006,246.431 103.605 C 245.781 103.204,244.912 102.689,244.500 102.459 C 243.845 102.094,240.613 100.233,239.042 99.316 C 238.744 99.142,238.219 98.842,237.875 98.649 C 237.531 98.456,237.175 98.242,237.083 98.173 C 236.992 98.104,236.504 97.822,236.000 97.545 C 235.496 97.269,233.883 96.349,232.417 95.500 C 230.950 94.651,229.338 93.731,228.833 93.455 C 228.329 93.178,227.842 92.896,227.750 92.827 C 227.658 92.758,227.321 92.553,227.000 92.371 C 226.513 92.095,222.345 89.691,220.583 88.670 C 219.632 88.118,212.415 83.956,211.907 83.666 C 211.483 83.424,209.424 82.214,208.500 81.663 C 208.362 81.581,207.162 80.900,205.833 80.148 C 204.504 79.397,203.248 78.672,203.042 78.538 L 202.667 78.295 202.667 97.545 M128.017 118.181 C 127.430 118.545,126.530 119.073,126.017 119.354 C 125.503 119.635,125.008 119.922,124.917 119.992 C 124.825 120.062,124.337 120.344,123.833 120.620 C 122.637 121.275,119.900 122.857,118.378 123.774 C 117.715 124.173,117.126 124.500,117.070 124.500 C 117.014 124.500,116.769 124.639,116.526 124.808 C 116.282 124.977,115.671 125.342,115.167 125.619 C 113.950 126.286,111.210 127.871,109.711 128.774 C 109.048 129.173,108.460 129.500,108.404 129.500 C 108.347 129.500,108.102 129.639,107.859 129.808 C 107.616 129.977,107.004 130.342,106.500 130.619 C 105.996 130.896,105.041 131.438,104.379 131.823 C 103.707 132.214,103.087 132.471,102.978 132.403 C 102.863 132.332,102.826 132.353,102.889 132.455 C 102.981 132.604,101.967 133.256,99.322 134.748 C 98.995 134.932,98.155 135.414,97.457 135.819 L 96.187 136.555 96.933 137.027 C 97.343 137.287,97.720 137.500,97.772 137.500 C 97.823 137.500,98.064 137.639,98.308 137.808 C 98.551 137.977,99.162 138.342,99.667 138.618 C 100.171 138.894,101.783 139.817,103.250 140.668 C 104.717 141.520,106.254 142.404,106.667 142.632 C 107.079 142.860,107.942 143.361,108.583 143.745 C 109.225 144.129,110.781 145.026,112.040 145.740 C 113.366 146.491,114.285 147.110,114.223 147.211 C 114.162 147.308,114.195 147.336,114.297 147.273 C 114.397 147.211,114.727 147.302,115.031 147.475 C 115.583 147.789,123.552 152.378,127.876 154.872 C 129.137 155.599,130.127 156.262,130.076 156.345 C 130.025 156.428,130.082 156.458,130.204 156.411 C 130.325 156.365,130.873 156.597,131.421 156.929 C 131.969 157.260,132.717 157.701,133.083 157.908 C 137.323 160.309,138.821 161.219,138.743 161.345 C 138.691 161.428,138.750 161.457,138.874 161.410 C 138.997 161.363,139.732 161.706,140.507 162.173 C 141.282 162.639,142.271 163.215,142.703 163.451 C 143.136 163.688,143.443 163.957,143.386 164.050 C 143.329 164.142,143.360 164.170,143.456 164.111 C 143.702 163.958,145.193 164.823,145.058 165.040 C 144.996 165.141,145.027 165.170,145.130 165.106 C 145.334 164.980,146.103 165.388,150.583 168.001 C 152.071 168.869,156.521 171.433,157.167 171.794 C 157.579 172.025,158.459 172.541,159.122 172.940 C 159.785 173.340,160.355 173.667,160.388 173.667 C 160.422 173.667,161.075 174.039,161.840 174.494 C 162.888 175.117,163.284 175.277,163.449 175.140 C 163.626 174.993,163.666 171.421,163.666 156.021 L 163.665 137.083 163.124 136.770 C 161.734 135.963,157.301 133.398,157.039 133.250 C 156.878 133.158,155.903 132.608,154.873 132.026 C 153.770 131.404,153.044 130.896,153.109 130.792 C 153.170 130.693,153.140 130.664,153.040 130.725 C 152.807 130.869,150.624 129.603,150.790 129.420 C 150.859 129.343,150.828 129.331,150.720 129.393 C 150.612 129.454,150.124 129.268,149.637 128.978 C 149.149 128.688,148.337 128.226,147.833 127.950 C 147.329 127.675,146.718 127.311,146.474 127.141 C 146.231 126.972,145.986 126.833,145.930 126.833 C 145.874 126.833,145.285 126.506,144.622 126.106 C 143.271 125.290,138.241 122.393,136.833 121.620 C 136.329 121.343,135.729 120.990,135.500 120.836 C 134.281 120.016,129.666 117.501,129.397 117.510 C 129.224 117.515,128.603 117.817,128.017 118.181 M305.583 142.456 C 305.033 142.783,302.633 144.173,300.250 145.546 C 296.045 147.967,295.436 148.318,294.292 148.980 C 293.994 149.152,292.287 150.136,290.500 151.167 C 288.712 152.197,287.006 153.181,286.708 153.353 C 286.410 153.526,285.885 153.825,285.542 154.018 C 285.198 154.211,284.842 154.425,284.750 154.494 C 284.658 154.562,284.171 154.844,283.667 155.119 C 283.162 155.395,281.550 156.317,280.083 157.168 C 276.901 159.016,277.225 158.829,273.168 161.160 C 271.381 162.186,269.844 163.084,269.751 163.156 C 269.659 163.227,269.171 163.511,268.667 163.786 C 268.162 164.061,266.550 164.983,265.083 165.835 C 263.617 166.686,262.192 167.513,261.917 167.671 C 260.220 168.648,254.820 171.766,253.417 172.579 C 246.685 176.478,245.138 177.335,244.992 177.245 C 244.900 177.188,244.846 177.225,244.871 177.327 C 244.932 177.573,242.875 178.712,242.636 178.564 C 242.527 178.497,242.495 178.523,242.559 178.628 C 242.625 178.733,242.056 179.158,241.168 179.666 C 240.342 180.138,239.667 180.577,239.667 180.640 C 239.667 180.755,240.680 181.390,242.250 182.259 C 242.708 182.512,243.363 182.895,243.705 183.110 C 244.047 183.324,244.356 183.500,244.391 183.500 C 244.426 183.500,245.863 184.325,247.583 185.333 C 249.304 186.342,250.737 187.167,250.769 187.167 C 250.801 187.167,251.318 187.467,251.917 187.833 C 252.516 188.200,253.037 188.500,253.076 188.500 C 253.114 188.500,254.023 189.025,255.095 189.667 C 256.167 190.308,257.070 190.833,257.102 190.833 C 257.135 190.833,257.651 191.133,258.250 191.500 C 258.849 191.867,259.377 192.167,259.423 192.167 C 259.469 192.167,259.786 192.342,260.128 192.557 C 260.470 192.771,261.087 193.137,261.500 193.369 C 261.912 193.600,262.925 194.185,263.750 194.667 C 264.575 195.149,265.587 195.733,266.000 195.965 C 266.412 196.197,267.030 196.562,267.372 196.776 C 267.714 196.991,268.021 197.167,268.056 197.167 C 268.090 197.167,269.154 197.773,270.421 198.515 L 272.724 199.862 273.320 199.531 C 275.161 198.509,281.178 195.030,282.268 194.358 C 282.737 194.070,283.164 193.833,283.217 193.833 C 283.270 193.833,283.787 193.544,284.365 193.191 C 287.429 191.318,290.178 189.821,290.354 189.930 C 290.473 190.003,290.507 189.980,290.441 189.873 C 290.297 189.640,296.440 186.113,296.715 186.271 C 296.826 186.335,296.861 186.325,296.793 186.250 C 296.653 186.096,296.898 185.903,298.045 185.262 C 298.483 185.018,298.933 184.871,299.045 184.936 C 299.158 185.001,299.193 184.991,299.124 184.914 C 298.961 184.735,299.286 184.525,303.000 182.405 C 304.696 181.437,306.215 180.547,306.376 180.428 C 306.652 180.224,306.666 179.152,306.626 161.037 L 306.583 141.863 305.583 142.456 M93.000 219.333 C 93.000 240.783,93.040 258.333,93.089 258.333 C 93.200 258.333,94.483 257.650,95.583 257.005 C 96.042 256.736,96.604 256.411,96.833 256.283 C 97.063 256.154,98.188 255.503,99.333 254.836 C 100.479 254.169,101.829 253.396,102.333 253.119 C 102.837 252.842,103.438 252.489,103.667 252.333 C 103.896 252.178,104.496 251.824,105.000 251.547 C 105.504 251.270,107.117 250.349,108.583 249.501 C 110.050 248.653,111.475 247.830,111.750 247.671 C 112.025 247.513,113.975 246.386,116.083 245.167 C 118.192 243.948,120.179 242.803,120.500 242.623 C 120.821 242.443,121.586 241.997,122.201 241.633 C 122.839 241.255,123.404 241.024,123.518 241.095 C 123.638 241.168,123.675 241.148,123.610 241.043 C 123.511 240.884,126.002 239.333,126.356 239.333 C 126.438 239.333,126.483 230.674,126.459 219.385 L 126.417 199.437 125.417 198.876 C 124.867 198.567,124.285 198.272,124.125 198.221 C 123.965 198.170,123.833 198.062,123.833 197.981 C 123.833 197.900,123.757 197.833,123.664 197.833 C 123.571 197.833,122.952 197.508,122.289 197.110 C 120.364 195.954,117.903 194.527,116.870 193.966 C 116.346 193.682,115.718 193.311,115.474 193.141 C 115.231 192.972,114.990 192.833,114.939 192.833 C 114.854 192.833,111.742 191.027,109.308 189.565 C 108.790 189.254,108.329 189.000,108.284 189.000 C 108.238 189.000,107.696 188.693,107.078 188.318 C 105.976 187.649,105.501 187.373,104.000 186.533 C 103.587 186.303,102.970 185.938,102.628 185.724 C 102.286 185.509,101.970 185.333,101.926 185.333 C 101.881 185.333,101.299 185.007,100.631 184.608 C 97.918 182.987,95.651 181.667,95.580 181.667 C 95.539 181.667,95.016 181.367,94.417 181.000 C 93.818 180.633,93.254 180.333,93.164 180.333 C 93.057 180.333,93.000 193.911,93.000 219.333 M268.917 244.764 C 268.092 245.252,267.306 245.613,267.172 245.567 C 267.037 245.520,266.980 245.536,267.046 245.601 C 267.189 245.744,266.815 246.016,265.354 246.832 C 264.747 247.171,263.517 247.875,262.621 248.398 C 261.725 248.921,260.907 249.296,260.804 249.232 C 260.688 249.160,260.661 249.190,260.734 249.308 C 260.846 249.489,260.622 249.581,260.250 249.506 C 260.158 249.487,260.140 249.529,260.209 249.598 C 260.278 249.667,260.015 249.907,259.625 250.132 C 259.236 250.356,258.673 250.681,258.375 250.853 C 258.077 251.026,257.590 251.306,257.292 251.477 C 256.994 251.648,256.300 252.050,255.750 252.371 C 255.200 252.692,254.412 253.143,254.000 253.373 C 252.606 254.151,249.085 256.195,248.917 256.324 C 248.825 256.394,248.338 256.678,247.833 256.954 C 247.329 257.230,246.375 257.771,245.712 258.157 C 245.041 258.548,244.421 258.804,244.311 258.736 C 244.196 258.665,244.159 258.687,244.223 258.789 C 244.315 258.938,243.123 259.678,239.177 261.921 C 237.191 263.049,236.137 263.718,236.072 263.888 C 236.031 263.996,236.017 272.651,236.040 283.123 L 236.083 302.162 236.500 301.940 C 236.729 301.818,237.854 301.169,239.000 300.498 C 240.146 299.827,241.496 299.054,242.000 298.780 C 242.504 298.507,243.104 298.155,243.333 298.000 C 243.563 297.845,244.162 297.491,244.667 297.213 C 245.171 296.936,247.031 295.873,248.801 294.851 C 250.571 293.829,252.092 293.037,252.181 293.092 C 252.269 293.147,252.321 293.106,252.296 293.001 C 252.271 292.897,252.676 292.572,253.196 292.280 C 253.716 291.989,255.816 290.782,257.863 289.600 C 259.909 288.417,263.496 286.346,265.833 284.999 C 269.344 282.974,274.625 279.926,277.125 278.480 C 277.423 278.308,277.948 278.009,278.292 277.816 C 278.635 277.622,278.992 277.408,279.083 277.340 C 279.175 277.271,279.662 276.989,280.167 276.714 C 280.671 276.439,282.283 275.517,283.750 274.665 C 285.217 273.814,286.642 272.988,286.917 272.829 C 287.192 272.671,287.959 272.227,288.621 271.842 C 289.293 271.452,289.913 271.196,290.022 271.264 C 290.138 271.335,290.174 271.313,290.111 271.211 C 290.048 271.110,290.966 270.484,292.286 269.727 C 295.128 268.095,295.779 267.720,297.288 266.843 C 297.959 266.452,298.579 266.196,298.689 266.264 C 298.805 266.336,298.841 266.313,298.776 266.208 C 298.712 266.105,299.577 265.514,300.875 264.775 C 304.192 262.887,304.095 263.241,301.667 261.877 C 301.207 261.619,295.655 258.415,292.917 256.827 C 292.642 256.668,291.798 256.184,291.043 255.751 C 290.254 255.301,289.715 254.891,289.777 254.790 C 289.841 254.687,289.805 254.665,289.689 254.736 C 289.579 254.804,288.959 254.548,288.288 254.158 C 287.625 253.773,286.858 253.329,286.583 253.170 C 286.308 253.012,284.358 251.885,282.250 250.667 C 280.142 249.448,278.079 248.263,277.667 248.035 C 277.254 247.807,276.374 247.293,275.711 246.893 C 275.048 246.494,274.475 246.167,274.437 246.167 C 274.399 246.167,273.891 245.880,273.309 245.530 C 272.726 245.180,271.837 244.665,271.333 244.385 L 270.417 243.877 268.917 244.764 M196.242 244.144 C 196.155 244.223,195.558 244.572,194.917 244.919 C 194.275 245.266,193.470 245.726,193.128 245.942 C 192.786 246.157,192.430 246.333,192.337 246.333 C 192.243 246.333,192.167 246.408,192.167 246.500 C 192.167 246.592,192.089 246.667,191.995 246.667 C 191.900 246.667,190.659 247.345,189.237 248.174 C 187.814 249.004,186.298 249.876,185.867 250.113 C 185.436 250.351,185.008 250.600,184.917 250.667 C 184.825 250.734,184.412 250.977,184.000 251.206 C 183.588 251.436,182.575 252.018,181.750 252.500 C 180.925 252.982,179.912 253.566,179.500 253.798 C 179.088 254.030,178.470 254.395,178.128 254.610 C 177.786 254.824,177.469 255.000,177.423 255.000 C 177.377 255.000,176.849 255.300,176.250 255.667 C 175.651 256.033,175.134 256.333,175.102 256.333 C 175.070 256.333,173.978 256.971,172.676 257.750 C 171.374 258.529,170.278 259.167,170.241 259.167 C 170.203 259.167,169.682 259.467,169.083 259.833 C 168.484 260.200,167.963 260.500,167.924 260.500 C 167.886 260.500,167.004 261.006,165.964 261.625 C 164.925 262.244,163.870 262.856,163.621 262.986 L 163.167 263.223 163.167 282.676 L 163.167 302.128 165.448 303.439 C 166.703 304.160,167.996 304.901,168.323 305.085 C 171.002 306.600,171.981 307.229,171.889 307.379 C 171.826 307.481,171.863 307.501,171.980 307.429 C 172.096 307.358,173.173 307.882,174.548 308.678 C 175.851 309.433,177.142 310.180,177.417 310.338 C 177.692 310.496,179.117 311.320,180.583 312.168 C 182.050 313.016,183.662 313.936,184.167 314.212 C 184.671 314.489,185.159 314.773,185.251 314.844 C 185.411 314.967,190.978 318.184,192.750 319.176 C 193.208 319.433,194.221 320.023,195.000 320.488 C 195.779 320.953,196.473 321.333,196.542 321.333 C 196.610 321.333,196.667 303.933,196.667 282.667 C 196.667 261.400,196.607 244.000,196.533 244.000 C 196.460 244.000,196.329 244.065,196.242 244.144 " stroke="none" fill="#c8c8c8" fill-rule="evenodd"></path></g></svg>